<?xml version="1.0" encoding="UTF-8" standalone="no"?>
<svg
   xmlns:dc="http://purl.org/dc/elements/1.1/"
   xmlns:cc="http://creativecommons.org/ns#"
   xmlns:rdf="http://www.w3.org/1999/02/22-rdf-syntax-ns#"
   xmlns:svg="http://www.w3.org/2000/svg"
   xmlns="http://www.w3.org/2000/svg"
   xmlns:sodipodi="http://sodipodi.sourceforge.net/DTD/sodipodi-0.dtd"
   xmlns:inkscape="http://www.inkscape.org/namespaces/inkscape"
   width="959"
   height="593"
   id="svg2"
   version="1.1"
   inkscape:version="0.91 r13725"
   sodipodi:docname="genetic8mapContiguous.svg"
   inkscape:export-filename="/home/rollersimmer/Desktop/maps/templates/north america/usa/Blank US states map png.png"
   inkscape:export-xdpi="95"
   inkscape:export-ydpi="95">
  <metadata
     id="metadata65">
    <rdf:RDF>
      <cc:Work
         rdf:about="">
        <dc:format>image/svg+xml</dc:format>
        <dc:type
           rdf:resource="http://purl.org/dc/dcmitype/StillImage" />
        <dc:title>Blank US states map</dc:title>
      </cc:Work>
    </rdf:RDF>
  </metadata>
  <defs
     id="defs63">
    <inkscape:perspective
       id="perspective2639"
       inkscape:persp3d-origin="529.12622 : 198.42269 : 1"
       inkscape:vp_z="1058.2524 : 297.63403 : 1"
       inkscape:vp_y="0 : 1000 : 0"
       inkscape:vp_x="0 : 297.63403 : 1"
       sodipodi:type="inkscape:persp3d" />
  </defs>
  <sodipodi:namedview
     pagecolor="#ffffff"
     bordercolor="#666666"
     borderopacity="1"
     objecttolerance="10"
     gridtolerance="10"
     guidetolerance="10"
     inkscape:pageopacity="0"
     inkscape:pageshadow="2"
     inkscape:window-width="1073"
     inkscape:window-height="918"
     id="namedview61"
     showgrid="false"
     inkscape:zoom="0.55057351"
     inkscape:cx="793.51571"
     inkscape:cy="235.15399"
     inkscape:window-x="306"
     inkscape:window-y="0"
     inkscape:window-maximized="0"
     inkscape:current-layer="layer3"
     inkscape:object-paths="true"
     inkscape:snap-intersection-paths="true"
     inkscape:object-nodes="true"
     inkscape:snap-smooth-nodes="true"
     inkscape:snap-midpoints="true"
     inkscape:snap-page="true" />
  <title
     id="title4">Blank US states map</title>
  <g
     inkscape:groupmode="layer"
     id="layer1"
     inkscape:label="bg"
     sodipodi:insensitive="true"
     style="display:inline">
    <rect
       style="opacity:1;fill:#ffffff;fill-opacity:1;stroke:none;stroke-width:1;stroke-miterlimit:4;stroke-dasharray:none;stroke-dashoffset:0;stroke-opacity:1"
       id="rect4190"
       width="959"
       height="593"
       x="0"
       y="0" />
  </g>
  <g
     inkscape:groupmode="layer"
     id="layer2"
     inkscape:label="states">
    <path
       style="fill:#55ff00"
       inkscape:connector-curvature="0"
       d="m 161.1,453.7 -0.3,85.4 1.6,1 3.1,0.2 1.5,-1.1 2.6,0 0.2,2.9 7,6.8 0.5,2.6 3.4,-1.9 0.6,-0.2 0.3,-3.1 1.5,-1.6 1.1,-0.2 1.9,-1.5 3.1,2.1 0.6,2.9 1.9,1.1 1.1,2.4 3.9,1.8 3.4,6 2.7,3.9 2.3,2.7 1.5,3.7 5,1.8 5.2,2.1 1,4.4 0.5,3.1 -1,3.4 -1.8,2.3 -1.6,-0.8 -1.5,-3.1 -2.7,-1.5 -1.8,-1.1 -0.8,0.8 1.5,2.7 0.2,3.7 -1.1,0.5 -1.9,-1.9 -2.1,-1.3 0.5,1.6 1.3,1.8 -0.8,0.8 c 0,0 -0.8,-0.3 -1.3,-1 -0.5,-0.6 -2.1,-3.4 -2.1,-3.4 l -1,-2.3 c 0,0 -0.3,1.3 -1,1 -0.6,-0.3 -1.3,-1.5 -1.3,-1.5 l 1.8,-1.9 -1.5,-1.5 0,-5 -0.8,0 -0.8,3.4 -1.1,0.5 -1,-3.7 -0.6,-3.7 -0.8,-0.5 0.3,5.7 0,1.1 -1.5,-1.3 -3.6,-6 -2.1,-0.5 -0.6,-3.7 -1.6,-2.9 -1.6,-1.1 0,-2.3 2.1,-1.3 -0.5,-0.3 -2.6,0.6 -3.4,-2.4 -2.6,-2.9 -4.8,-2.6 -4,-2.6 1.3,-3.2 0,-1.6 -1.8,1.6 -2.9,1.1 -3.7,-1.1 -5.7,-2.4 -5.5,0 -0.6,0.5 -6.5,-3.9 -2.1,-0.3 -2.7,-5.8 -3.6,0.3 -3.6,1.5 0.5,4.5 1.1,-2.9 1,0.3 -1.5,4.4 3.2,-2.7 0.6,1.6 -3.9,4.4 -1.3,-0.3 -0.5,-1.9 -1.3,-0.8 -1.3,1.1 -2.7,-1.8 -3.1,2.1 -1.8,2.1 -3.4,2.1 -4.7,-0.2 -0.5,-2.1 3.7,-0.6 0,-1.3 -2.3,-0.6 1,-2.4 2.3,-3.9 0,-1.8 0.2,-0.8 4.4,-2.3 1,1.3 2.7,0 -1.3,-2.6 -3.7,-0.3 -5,2.7 -2.4,3.4 -1.8,2.6 -1.1,2.3 -4.2,1.5 -3.1,2.6 -0.3,1.6 2.3,1 0.8,2.1 -2.7,3.2 -6.5,4.2 -7.8,4.2 -2.1,1.1 -5.3,1.1 -5.3,2.3 1.8,1.3 -1.5,1.5 -0.5,1.1 -2.7,-1 -3.2,0.2 -0.8,2.3 -1,0 0.3,-2.4 -3.6,1.3 -2.9,1 -3.4,-1.3 -2.9,1.9 -3.2,0 -2.1,1.3 -1.6,0.8 -2.1,-0.3 -2.6,-1.1 -2.3,0.6 -1,1 -1.6,-1.1 0,-1.9 3.1,-1.3 6.3,0.6 4.4,-1.6 2.1,-2.1 2.9,-0.6 1.8,-0.8 2.7,0.2 1.6,1.3 1,-0.3 2.3,-2.7 3.1,-1 3.4,-0.6 1.3,-0.3 0.6,0.5 0.8,0 1.3,-3.7 4,-1.5 1.9,-3.7 2.3,-4.5 1.6,-1.5 0.3,-2.6 -1.6,1.3 -3.4,0.6 -0.6,-2.4 -1.3,-0.3 -1,1 -0.2,2.9 -1.5,-0.2 -1.5,-5.8 -1.3,1.3 -1.1,-0.5 -0.3,-1.9 -4,0.2 -2.1,1.1 -2.6,-0.3 1.5,-1.5 0.5,-2.6 -0.6,-1.9 1.5,-1 1.3,-0.2 -0.6,-1.8 0,-4.4 -1,-1 -0.8,1.5 -6.1,0 -1.5,-1.3 -0.6,-3.9 -2.1,-3.6 0,-1 2.1,-0.8 0.2,-2.1 1.1,-1.1 -0.8,-0.5 -1.3,0.5 -1.1,-2.7 1,-5 4.5,-3.2 2.6,-1.6 1.9,-3.7 2.7,-1.3 2.6,1.1 0.3,2.4 2.4,-0.3 3.2,-2.4 1.6,0.6 1,0.6 1.6,0 2.3,-1.3 0.8,-4.4 c 0,0 0.3,-2.9 1,-3.4 0.6,-0.5 1,-1 1,-1 l -1.1,-1.9 -2.6,0.8 -3.2,0.8 -1.9,-0.5 -3.6,-1.8 -5,-0.2 -3.6,-3.7 0.5,-3.9 0.6,-2.4 -2.1,-1.8 -1.9,-3.7 0.5,-0.8 6.8,-0.5 2.1,0 1,1 0.6,0 -0.2,-1.6 3.9,-0.6 2.6,0.3 1.5,1.1 -1.5,2.1 -0.5,1.5 2.7,1.6 5,1.8 1.8,-1 -2.3,-4.4 -1,-3.2 1,-0.8 -3.4,-1.9 -0.5,-1.1 0.5,-1.6 -0.8,-3.9 -2.9,-4.7 -2.4,-4.2 2.9,-1.9 3.2,0 1.8,0.6 4.2,-0.2 3.7,-3.6 1.1,-3.1 3.7,-2.4 1.6,1 2.7,-0.6 3.7,-2.1 1.1,-0.2 1,0.8 4.5,-0.2 2.7,-3.1 1.1,0 3.6,2.4 1.9,2.1 -0.5,1.1 0.6,1.1 1.6,-1.6 3.9,0.3 0.3,3.7 1.9,1.5 7.1,0.6 6.3,4.2 1.5,-1 5.2,2.6 2.1,-0.6 1.9,-0.8 4.8,1.9 z M 46,482.6 l 2.1,5.3 -0.2,1 -2.9,-0.3 -1.8,-4 -1.8,-1.5 -2.4,0 -0.2,-2.6 1.8,-2.4 1.1,2.4 1.5,1.5 z m -2.6,33.5 3.7,0.8 3.7,1 0.8,1 -1.6,3.7 -3.1,-0.2 -3.4,-3.6 z M 22.7,502 l 1.1,2.6 1.1,1.6 -1.1,0.8 -2.1,-3.1 0,-1.9 z M 9,575.1 l 3.4,-2.3 3.4,-1 2.6,0.3 0.5,1.6 1.9,0.5 1.9,-1.9 -0.3,-1.6 2.7,-0.6 2.9,2.6 -1.1,1.8 -4.4,1.1 -2.7,-0.5 -3.7,-1.1 -4.4,1.5 -1.6,0.3 z m 48.9,-4.5 1.6,1.9 2.1,-1.6 -1.5,-1.3 z m 2.9,3 1.1,-2.3 2.1,0.3 -0.8,1.9 -2.4,0 z m 23.6,-1.9 1.5,1.8 1,-1.1 -0.8,-1.9 z m 8.8,-12.5 1.1,5.8 2.9,0.8 5,-2.9 4.4,-2.6 -1.6,-2.4 0.5,-2.4 -2.1,1.3 -2.9,-0.8 1.6,-1.1 1.9,0.8 3.9,-1.8 0.5,-1.5 -2.4,-0.8 0.8,-1.9 -2.7,1.9 -4.7,3.6 -4.8,2.9 z m 42.3,-19.8 2.4,-1.5 -1,-1.8 -1.8,1 z"
       id="AK" />
    <path
       style="fill:#ffff80"
       inkscape:connector-curvature="0"
       d="m 233.1,519.3 1.9,-3.6 2.3,-0.3 0.3,0.8 -2.1,3.1 z m 10.2,-3.7 6.1,2.6 2.1,-0.3 1.6,-3.9 -0.6,-3.4 -4.2,-0.5 -4,1.8 z m 30.7,10 3.7,5.5 2.4,-0.3 1.1,-0.5 1.5,1.3 3.7,-0.2 1,-1.5 -2.9,-1.8 -1.9,-3.7 -2.1,-3.6 -5.8,2.9 z m 20.2,8.9 1.3,-1.9 4.7,1 0.6,-0.5 6.1,0.6 -0.3,1.3 -2.6,1.5 -4.4,-0.3 z m 5.3,5.2 1.9,3.9 3.1,-1.1 0.3,-1.6 -1.6,-2.1 -3.7,-0.3 z m 7,-1.2 2.3,-2.9 4.7,2.4 4.4,1.1 4.4,2.7 0,1.9 -3.6,1.8 -4.8,1 -2.4,-1.5 z m 16.6,15.6 1.6,-1.3 3.4,1.6 7.6,3.6 3.4,2.1 1.6,2.4 1.9,4.4 4,2.6 -0.3,1.3 -3.9,3.2 -4.2,1.5 -1.5,-0.6 -3.1,1.8 -2.4,3.2 -2.3,2.9 -1.8,-0.2 -3.6,-2.6 -0.3,-4.5 0.6,-2.4 -1.6,-5.7 -2.1,-1.8 -0.2,-2.6 2.3,-1 2.1,-3.1 0.5,-1 -1.6,-1.8 z"
       id="HI" />
    <path
       style="fill:#80ffd5"
       inkscape:connector-curvature="0"
       d="m 628.5,466.4 0.6,0.2 1.3,-2.7 1.5,-4.4 2.3,0.6 3.1,6 0,1 -2.7,1.9 2.7,0.3 5.2,-2.5 -0.3,-7.6 -2.5,-1.8 -2,-2 0.4,-4 10.5,-1.5 25.7,-2.9 6.7,-0.6 5.6,0.1 -0.5,-2.2 -1.5,-0.8 -0.9,-1.1 1,-2.6 -0.4,-5.2 -1.6,-4.5 0.8,-5.1 1.7,-4.8 -0.2,-1.7 -1.8,-0.7 -0.5,-3.6 -2.7,-3.4 -2,-6.5 -1.4,-6.7 -1.8,-5 -3.8,-16 -3.5,-7.9 -0.8,-5.6 0.1,-2.2 -9,0.8 -23.4,2.2 -12.2,0.8 -0.2,6.4 0.2,16.7 -0.7,31 -0.3,14.1 2.8,18.8 1.6,14.7 z"
       id="AL" />
    <path
       style="fill:#ff8080"
       inkscape:connector-curvature="0"
       d="m 587.3,346.1 -6.4,-0.7 0.9,-3.1 3.1,-2.6 0.6,-2.3 -1.8,-2.9 -31.9,1.2 -23.3,0.7 -23.6,0.3 1.5,6.9 0.1,8.5 1.4,10.9 0.3,38.2 2.1,1.6 3,-1.2 2.9,1.2 0.4,10.1 25.2,-0.2 26.8,-0.8 0.9,-1.9 -0.3,-3.8 -1.7,-3.1 1.5,-1.4 -1.4,-2.2 0.7,-2.4 1.1,-5.9 2.7,-2.3 -0.8,-2.2 4,-5.6 2.5,-1.1 -0.1,-1.7 -0.5,-1.7 2.9,-5.8 2.5,-1.1 0.2,-3.3 2.1,-1.4 0.9,-4.1 -1.4,-4 4.2,-2.4 0.3,-2.1 1.2,-4.2 0.9,-3.1 z"
       id="AR" />
    <path
       style="fill:#aa80ff"
       inkscape:connector-curvature="0"
       d="m 135.1,389.7 -0.3,1.5 0.5,1 18.9,10.7 12.1,7.6 14.7,8.6 16.8,10 12.3,2.4 25.4,2.7 6,-39.6 7,-53.1 4.4,-31 -24.6,-3.6 -60.7,-11 -0.2,1.1 -2.6,16.5 -2.1,3.8 -2.8,-0.2 -1.2,-2.6 -2.6,-0.4 -1.2,-1.1 -1.1,0.1 -2.1,1.7 -0.3,6.8 -0.3,1.5 -0.5,12.5 -1.5,2.4 -0.4,3.3 2.8,5 1.1,5.5 0.7,1.1 1.1,0.9 -0.4,2.4 -1.7,1.2 -3.4,1.6 -1.6,1.8 -1.6,3.6 -0.5,4.9 -3,2.9 -1.9,0.9 -0.1,5.8 -0.6,1.6 0.5,0.8 3.9,0.4 -0.9,3 -1.7,2.4 -3.7,0.4 z"
       id="AZ" />
    <path
       style="fill:#ffff80"
       inkscape:connector-curvature="0"
       d="m 122.7,385.9 -19.7,-2.7 -10,-1.5 -0.5,-1.8 0,-9.4 -0.3,-3.2 -2.6,-4.2 -0.8,-2.3 -3.9,-4.2 -2.9,-4.7 -2.7,-0.2 -3.2,-0.8 -0.3,-1 1.5,-0.6 -0.6,-3.2 -1.5,-2.1 -4.8,-0.8 -3.9,-2.1 -1.1,-2.3 -2.6,-4.8 -2.9,-3.1 -2.9,0 -3.9,-2.1 -4.5,-1.8 -4.2,-0.5 -2.4,-2.7 0.5,-1.9 1.8,-7.1 0.8,-1.9 0,-2.4 -1.6,-1 -0.5,-2.9 -1.5,-2.6 -3.4,-5.8 -1.3,-3.1 -1.5,-4.7 -1.6,-5.3 -3.2,-4.4 -0.5,-2.9 0.8,-3.9 1.1,0 2.1,-1.6 1.1,-3.6 -1,-2.7 -2.7,-0.5 -1.9,-2.6 -2.1,-3.7 -0.2,-8.2 0.6,-1.9 0.6,-2.3 0.5,-2.4 -5.7,-6.3 0,-2.1 0.3,-0.5 0.3,-3.2 -1.3,-4 -2.3,-4.8 -2.7,-4.5 -1.8,-3.9 1,-3.7 0.6,-5.8 1.8,-3.1 0.3,-6.5 -1.1,-3.6 -1.6,-4.2 -2.7,-4.2 0.8,-3.2 1.5,-4.2 1.8,-0.8 0.3,-1.1 3.1,-2.6 5.2,-11.8 0.2,-7.4 1.69,-4.9 38.69,11.8 25.6,6.6 -8,31.3 -8.67,33.1 12.63,19.2 42.16,62.3 17.1,26.1 -0.4,3.1 2.8,5.2 1.1,5.4 1,1.5 0.7,0.6 -0.2,1.4 -1.4,1 -3.4,1.6 -1.9,2.1 -1.7,3.9 -0.5,4.7 -2.6,2.5 -2.3,1.1 -0.1,6.2 -0.6,1.9 1,1.7 3,0.3 -0.4,1.6 -1.4,2 -3.9,0.6 z M 48.8,337 l 1.3,1.5 -0.2,1.3 -3.2,-0.1 -0.6,-1.2 -0.6,-1.5 z m 1.9,0 1.2,-0.6 3.6,2.1 3.1,1.2 -0.9,0.6 -4.5,-0.2 -1.6,-1.6 z m 20.7,19.8 1.8,2.3 0.8,1 1.5,0.6 0.6,-1.5 -1,-1.8 -2.7,-2 -1.1,0.2 0,1.2 z m -1.4,8.7 1.8,3.2 1.2,1.9 -1.5,0.2 -1.3,-1.2 c 0,0 -0.7,-1.5 -0.7,-1.9 0,-0.4 0,-2.2 0,-2.2 z"
       id="CA" />
    <path
       style="fill:#55ff00;fill-opacity:1"
       inkscape:connector-curvature="0"
       d="m 380.2,235.5 -36,-3.5 -79.1,-8.6 -2.2,22.1 -7,50.4 -1.9,13.7 34,3.9 37.5,4.4 34.7,3 14.3,0.6 z"
       id="CO" />
    <path
       style="fill:#ffd580"
       inkscape:connector-curvature="0"
       d="m 852,190.9 3.6,-3.2 1.9,-2.1 0.8,0.6 2.7,-1.5 5.2,-1.1 7,-3.5 -0.6,-4.2 -0.8,-4.4 -1.6,-6 -4.3,1.1 -21.8,4.7 0.6,3.1 1.5,7.3 0,8.3 -0.9,2.1 1.7,2.2 z"
       id="CT" />
    <path
       style="fill:#ffd580"
       inkscape:connector-curvature="0"
       d="m 834.4,247.2 -1,0.5 -3.6,-2.4 -1.8,-4.7 -1.9,-3.6 -2.3,-1 -2.1,-3.6 0.5,-2 0.5,-2.3 0.1,-1.1 -0.6,0.1 -1.7,1 -2,1.7 -0.2,0.3 1.4,4.1 2.3,5.6 3.7,16.1 5,-0.3 6,-1.1 z"
       id="DE" />
    <path
       style="fill:#80ffd5"
       inkscape:connector-curvature="0"
       d="m 750.2,445.2 -5.2,-0.7 -0.7,0.8 1.5,4.4 -0.4,5.2 -4.1,-1 -0.2,-2.8 -4.1,0 -5.3,0.7 -32.4,1.9 -8.2,-0.3 -1.7,-1.7 -2.5,-4.2 -5.9,0 -6.6,0.5 -35.4,4.2 -0.3,2.8 1.6,1.6 2.9,2 0.3,8.4 3.3,-0.6 6,-2.1 6,-0.5 4.4,-0.6 7.6,1.8 8.1,3.9 1.6,1.5 2.9,1.1 1.6,1.9 0.3,2.7 3.2,-1.3 3.9,0 3.6,-1.9 3.7,-3.6 3.1,0.2 0.5,-1.1 -0.8,-1 0.2,-1.9 4,-0.8 2.6,0 2.9,1.5 4.2,1.5 2.4,3.7 2.7,1 1.1,3.4 3.4,1.6 1.6,2.6 1.9,0.6 5.2,1.3 1.3,3.1 3,3.7 0,9.5 -1.5,4.7 0.3,2.7 1.3,4.8 1.8,4 0.8,-0.5 1.5,-4.5 -2.6,-1 -0.3,-0.6 1.6,-0.6 4.5,1 0.2,1.6 -3.2,5.5 -2.1,2.4 3.6,3.7 2.6,3.1 2.9,5.3 2.9,3.9 2.1,5 1.8,0.3 1.6,-2.1 1.8,1.1 2.6,4 0.6,3.6 3.1,4.4 0.8,-1.3 3.9,0.3 3.6,2.3 3.4,5.2 0.8,3.4 0.3,2.9 1.1,1 1.3,0.5 2.4,-1 1.5,-1.6 3.9,-0.2 3.1,-1.5 2.7,-3.2 -0.5,-1.9 -0.3,-2.4 0.6,-1.9 -0.3,-1.9 2.4,-1.3 0.3,-3.4 -0.6,-1.8 -0.5,-12 -1.3,-7.6 -4.5,-8.2 -3.6,-5.8 -2.6,-5.3 -2.9,-2.9 -2.9,-7.4 0.7,-1.4 1.1,-1.3 -1.6,-2.9 -4,-3.7 -4.8,-5.5 -3.7,-6.3 -5.3,-9.4 -3.7,-9.7 -2.3,-7.3 z m 17.7,132.7 2.4,-0.6 1.3,-0.2 1.5,-2.3 2.3,-1.6 1.3,0.5 1.7,0.3 0.4,1.1 -3.5,1.2 -4.2,1.5 -2.3,1.2 z m 13.5,-5 1.2,1.1 2.7,-2.1 5.3,-4.2 3.7,-3.9 2.5,-6.6 1,-1.7 0.2,-3.4 -0.7,0.5 -1,2.8 -1.5,4.6 -3.2,5.3 -4.4,4.2 -3.4,1.9 z"
       id="FL" />
    <path
       style="fill:#80ffd5"
       inkscape:connector-curvature="0"
       d="m 750.2,444.2 -5.6,-0.7 -1.4,1.6 1.6,4.7 -0.3,3.9 -2.2,-0.6 -0.2,-3 -5.2,0 -5.3,0.7 -32.3,1.9 -7.7,-0.3 -1.4,-1.2 -2.5,-4.3 -0.8,-3.3 -1.6,-0.9 -0.5,-0.5 0.9,-2.2 -0.4,-5.5 -1.6,-4.5 0.8,-4.9 1.7,-4.8 -0.2,-2.5 -1.9,-0.7 -0.4,-3.2 -2.8,-3.5 -1.9,-6.2 -1.5,-7 -1.7,-4.8 -3.8,-16 -3.5,-8 -0.8,-5.3 0.1,-2.3 3.3,-0.3 13.6,-1.6 18.6,-2 6.3,-1.1 0.5,1.4 -2.2,0.9 -0.9,2.2 0.4,2 1.4,1.6 4.3,2.7 3.2,-0.1 3.2,4.7 0.6,1.6 2.3,2.8 0.5,1.7 4.7,1.8 3,2.2 2.3,3 2.3,1.3 2,1.8 1.4,2.7 2.1,1.9 4.1,1.8 2.7,6 1.7,5.1 2.8,0.7 2.1,1.9 2,5.7 2.9,1.6 1.7,-0.8 0.4,1.2 -3.3,6.2 0.5,2.6 -1.5,4.2 -2.3,10 0.8,6.3 z"
       id="GA" />
    <path
       style="fill:#55ff00"
       inkscape:connector-curvature="0"
       d="m 556.8,183.6 2.1,2.1 0.3,0.7 -2,3 0.3,4 2.6,4.1 3.1,1.6 2.4,0.3 0.9,1.8 0.2,2.4 2.5,1 0.9,1.1 0.5,1.6 3.8,3.3 0.6,1.9 -0.7,3 -1.7,3.7 -0.6,2.4 -2.1,1.6 -1.6,0.5 -5.7,1.5 -1.6,4.8 0.8,1.8 1.7,1.5 -0.2,3.5 -1.9,1.4 -0.7,1.8 0,2.4 -1.4,0.4 -1.7,1.4 -0.5,1.7 0.4,1.7 -1.3,1 -2.3,-2.7 -1.4,-2.8 -8.3,0.8 -10,0.6 -49.2,1.2 -1.6,-4.3 -0.4,-6.7 -1.4,-4.2 -0.7,-5.2 -2.2,-3.7 -1,-4.6 -2.7,-7.8 -1.1,-5.6 -1.4,-1.9 -1.3,-2.9 1.7,-3.8 1.2,-6.1 -2.7,-2.2 -0.3,-2.4 0.7,-2.4 1.8,-0.3 61.1,-0.6 21.2,-0.7 z"
       id="IA" />
    <path
       style="fill:#55ff00"
       inkscape:connector-curvature="0"
       d="m 175.3,27.63 -4.8,17.41 -4.5,20.86 -3.4,16.22 -0.4,9.67 1.2,4.44 3.5,2.66 -0.2,3.91 -3.9,4.4 -4.5,6.6 -0.9,2.9 -1.2,1.1 -1.8,0.8 -4.3,5.3 -0.4,3.1 -0.4,1.1 0.6,1 2.6,-0.1 1.1,2.3 -2.4,5.8 -1.2,4.2 -8.8,35.3 20.7,4.5 39.5,7.9 34.8,6.1 4.9,-29.2 3.8,-24.1 -2.7,-2.4 -0.4,-2.6 -0.8,-1.1 -2.1,1 -0.7,2.6 -3.2,0.5 -3.9,-1.6 -3.8,0.1 -2.5,0.7 -3.4,-1.5 -2.4,0.2 -2.4,2 -2,-1.1 -0.7,-4 0.7,-2.9 -2.5,-2.9 -3.3,-2.6 -2.7,-13.1 -0.1,-4.7 -0.3,-0.1 -0.2,0.4 -5.1,3.5 -1.7,-0.2 -2.9,-3.4 -0.2,-3.1 7,-17.13 -0.4,-1.94 -3.4,-1.15 -0.6,-1.18 -2.6,-3.46 -4.6,-10.23 -3.2,-1.53 -2,-4.95 1.3,-4.63 -3.2,-7.58 4.4,-21.52 z"
       id="ID" />
    <path
       style="fill:#ff8080"
       inkscape:connector-curvature="0"
       d="m 618.7,214.3 -0.8,-2.6 -1.3,-3.7 -1.6,-1.8 -1.5,-2.6 -0.4,-5.5 -15.9,1.8 -17.4,1 -12.3,0 0.2,2.1 2.2,0.9 1.1,1.4 0.4,1.4 3.9,3.4 0.7,2.4 -0.7,3.3 -1.7,3.7 -0.8,2.7 -2.4,1.9 -1.9,0.6 -5.2,1.3 -1.3,4.1 0.6,1.1 1.9,1.8 -0.2,4.3 -2.1,1.6 -0.5,1.3 0,2.8 -1.8,0.6 -1.4,1.2 -0.4,1.2 0.4,2 -1.6,1.3 -0.9,2.8 0.3,3.9 2.3,7 7,7.6 5.7,3.7 0,4.4 0.7,1.2 6.6,0.6 2.7,1.4 -0.7,3.5 -2.2,6.2 -0.8,3 2,3.7 6.4,5.3 4.8,0.8 2.2,5.1 2,3.4 -0.9,2.8 1.5,3.8 1.7,2.1 1.6,-0.3 1,-2.2 2.4,-1.7 2.8,-1 6.1,2.5 0.5,-0.2 0,-1.1 -1.2,-2.7 0.4,-2.8 2.4,-1.6 3.4,-1.2 -0.5,-1.3 -0.8,-2 1.2,-1.3 1,-2.7 0,-4 0.4,-4.9 2.5,-3 1.8,-3.8 2.5,-4 -0.5,-5.3 -1.8,-3.2 -0.3,-3.3 0.8,-5.3 -0.7,-7.2 -1.1,-15.8 -1.4,-15.3 -0.9,-11.7 z"
       id="IL" />
    <path
       style="fill:#80aaff"
       inkscape:connector-curvature="0"
       d="m 622.9,216.1 1.5,1 1.1,-0.3 2.1,-1.9 2.5,-1.8 14.3,-1.1 18.4,-1.8 1.6,15.5 4.9,42.6 -0.6,2.9 1.3,1.6 0.2,1.3 -2.3,1.6 -3.6,1.7 -3.2,0.4 -0.5,4.8 -4.7,3.6 -2.9,4 0.2,2.4 -0.5,1.4 -3.5,0 -1.4,-1.7 -5.2,3 0.2,3.1 -0.9,0.2 -0.5,-0.9 -2.4,-1.7 -3.6,1.5 -1.4,2.9 -1.2,-0.6 -1.6,-1.8 -4.4,0.5 -5.7,1 -2.5,1.3 0,-2.6 0.4,-4.7 2.3,-2.9 1.8,-3.9 2.7,-4.2 -0.5,-5.8 -1.8,-3.1 -0.3,-3.2 0.8,-5.3 -0.7,-7.1 -0.9,-12.6 -2.5,-30.1 z"
       id="IN" />
    <path
       style="fill:#55ff00"
       inkscape:connector-curvature="0"
       d="m 485.9,259.5 -43.8,-0.6 -40.6,-1.2 -21.7,-0.9 -4.3,64.8 24.3,1 44.7,2.1 46.3,0.6 12.6,-0.3 0.7,-35 -1.2,-11.1 -2.5,-2 -2.4,-3 -2.3,-3.6 0.6,-3 1.7,-1.4 0,-2.1 -0.8,-0.7 -2.6,-0.2 -3.5,-3.4 z"
       id="KS" />
    <path
       style="fill:#80aaff"
       inkscape:connector-curvature="0"
       d="m 607.2,331.8 12.6,-0.7 0.1,-4.1 4.3,0 30.4,-3.2 45.1,-4.3 5.6,-3.6 3.9,-2.1 0.1,-1.9 6,-7.8 4.1,-3.6 2.1,-2.4 -3.3,-2 -2.5,-2.7 -3,-3.8 -0.5,-2.2 -2.6,-1.4 -0.9,-1.9 -0.2,-6.1 -2.6,-2 -1.9,-1.1 -0.5,-2.3 -1.3,0.2 -2,1.2 -2.5,2.7 -1.9,-1.7 -2.5,-0.5 -2.4,1.4 -2.3,0 -1.8,-2 -5.6,-0.1 -1.8,-4.5 -2.9,-1.5 -2.1,0.8 -4.2,0.2 -0.5,2.1 1.2,1.5 0.3,2.1 -2.8,2 -3.8,1.8 -2.6,0.4 -0.5,4.5 -4.9,3.6 -2.6,3.7 0.2,2.2 -0.9,2.3 -4.5,-0.1 -1.3,-1.3 -3.9,2.2 0.2,3.3 -2.4,0.6 -0.8,-1.4 -1.7,-1.2 -2.7,1.1 -1.8,3.5 -2.2,-1 -1.4,-1.6 -3.7,0.4 -5.6,1 -2.8,1.3 -1.2,3.4 -1,1 1.5,3.7 -4.2,1.4 -1.9,1.4 -0.4,2.2 1.2,2.4 0,2.2 -1.6,0.4 -6.1,-2.5 -2.3,0.9 -2,1.4 -0.8,1.8 1.7,2.4 -0.9,1.8 -0.1,3.3 -2.4,1.3 -2.1,1.7 z"
       id="KY" />
    <path
       style="fill:#ff8080"
       inkscape:connector-curvature="0"
       d="m 526.9,485.9 8.1,-0.3 10.3,3.6 6.5,1.1 3.7,-1.5 3.2,1.1 3.2,1 0.8,-2.1 -3.2,-1.1 -2.6,0.5 -2.7,-1.6 0.8,-1.5 3.1,-1 1.8,1.5 1.8,-1 3.2,0.6 1.5,2.4 0.3,2.3 4.5,0.3 1.8,1.8 -0.8,1.6 -1.3,0.8 1.6,1.6 8.4,3.6 3.6,-1.3 1,-2.4 2.6,-0.6 1.8,-1.5 1.3,1 0.8,2.9 -2.3,0.8 0.6,0.6 3.4,-1.3 2.3,-3.4 0.8,-0.5 -2.1,-0.3 0.8,-1.6 -0.2,-1.5 2.1,-0.5 1.1,-1.3 0.6,0.8 0.6,3.1 4.2,0.6 4,1.9 1,1.5 2.9,0 1.1,1 2.3,-3.1 0,-1.5 -1.3,0 -3.4,-2.7 -5.8,-0.8 -3.2,-2.3 1.1,-2.7 2.3,0.3 0.2,-0.6 -1.8,-1 0,-0.5 3.2,0 1.8,-3.1 -1.3,-1.9 -0.3,-2.7 -1.5,0.2 -1.9,2.1 -0.6,2.6 -3.1,-0.6 -1,-1.8 1.8,-1.9 1.9,-1.7 -2.2,-6.5 -3.4,-3.4 1,-7.3 -0.2,-0.5 -1.3,0.2 -33.1,1.4 -0.8,-2.4 0.8,-8.5 8.6,-14.8 -0.9,-2.6 1.4,-0.4 0.4,-2 -2.2,-2 0.1,-1.9 -2,-4.5 -0.4,-5.1 0.1,-0.7 -26.4,0.8 -25.2,0.1 0.4,9.7 0.7,9.5 0.5,3.7 2.6,4.5 0.9,4.4 4.3,6 0.3,3.1 0.6,0.8 -0.7,8.3 -2.8,4.6 1.2,2.4 -0.5,2.6 -0.8,7.3 -1.3,3 0.2,3.7 z"
       id="LA" />
    <path
       style="fill:#ffd580"
       inkscape:connector-curvature="0"
       d="m 887.5,172.5 -0.5,-2.3 0.8,-1.5 2.9,-1.5 0.8,3.1 -0.5,1.8 -2.4,1.5 0,1 1.9,-1.5 3.9,-4.5 3.9,-1.9 4.2,-1.5 -0.3,-2.4 -1,-2.9 -1.9,-2.4 -1.8,-0.8 -2.1,0.2 -0.5,0.5 1,1.3 1.5,-0.8 2.1,1.6 0.8,2.7 -1.8,1.8 -2.3,1 -3.6,-0.5 -3.9,-6 -2.3,-2.6 -1.8,0 -1.1,0.8 -1.9,-2.6 0.3,-1.5 2.4,-5.2 -2.9,-4.4 -3.7,1.8 -1.8,2.9 -18.3,4.7 -13.8,2.5 -0.6,10.6 0.7,4.9 22,-4.8 11.2,-2.8 2,1.6 3.4,4.3 2.9,4.7 z m 12.5,1.4 2.2,-0.7 0.5,-1.7 1,0.1 1,2.3 -1.3,0.5 -3.9,0.1 z m -9.4,0.8 2.3,-2.6 1.6,0 1.8,1.5 -2.4,1 -2.2,1 z"
       id="MA" />
    <path
       style="fill:#80d5ff"
       inkscape:connector-curvature="0"
       d="m 834.8,264.1 1.7,-3.8 0.5,-4.8 -6.3,1.1 -5.8,0.3 -3.8,-16.8 -2.3,-5.5 -1.5,-4.6 -22.2,4.3 -37.6,7.6 2,10.4 4.8,-4.9 2.5,-0.7 1.4,-1.5 1.8,-2.7 1.6,0.7 2.6,-0.2 2.6,-2.1 2,-1.5 2.1,-0.6 1.5,1.1 2.7,1.4 1.9,1.8 1.3,1.4 4.8,1.6 -0.6,2.9 5.8,2.1 2.1,-2.6 3.7,2.5 -2.1,3.3 -0.7,3.3 -1.8,2.6 0,2.1 0.3,0.8 2,1.3 3.4,1.1 4.3,-0.1 3.1,1 2.1,0.3 1,-2.1 -1.5,-2.1 0,-1.8 -2.4,-2.1 -2.1,-5.5 1.3,-5.3 -0.2,-2.1 -1.3,-1.3 c 0,0 1.5,-1.6 1.5,-2.3 0,-0.6 0.5,-2.1 0.5,-2.1 l 1.9,-1.3 1.9,-1.6 0.5,1 -1.5,1.6 -1.3,3.7 0.3,1.1 1.8,0.3 0.5,5.5 -2.1,1 0.3,3.6 0.5,-0.2 1.1,-1.9 1.6,1.8 -1.6,1.3 -0.3,3.4 2.6,3.4 3.9,0.5 1.6,-0.8 3.2,4.2 1,0.4 z m -14.5,0.2 1.1,2.5 0.2,1.8 1.1,1.9 c 0,0 0.9,-0.9 0.9,-1.2 0,-0.3 -0.7,-3.1 -0.7,-3.1 l -0.7,-2.3 z"
       id="MD" />
    <path
       style="fill:#ffd580"
       inkscape:connector-curvature="0"
       d="m 865.8,91.9 1.5,0.4 0,-2.6 0.8,-5.5 2.6,-4.7 1.5,-4 -1.9,-2.4 0,-6 0.8,-1 0.8,-2.7 -0.2,-1.5 -0.2,-4.8 1.8,-4.8 2.9,-8.9 2.1,-4.2 1.3,0 1.3,0.2 0,1.1 1.3,2.3 2.7,0.6 0.8,-0.8 0,-1 4,-2.9 1.8,-1.8 1.5,0.2 6,2.4 1.9,1 9.1,29.9 6,0 0.8,1.9 0.2,4.8 2.9,2.3 0.8,0 0.2,-0.5 -0.5,-1.1 2.8,-0.5 1.9,2.1 2.3,3.7 0,1.9 -2.1,4.7 -1.9,0.6 -3.4,3.1 -4.8,5.5 c 0,0 -0.6,0 -1.3,0 -0.6,0 -1,-2.1 -1,-2.1 l -1.8,0.2 -1,1.5 -2.4,1.5 -1,1.5 1.6,1.5 -0.5,0.6 -0.5,2.7 -1.9,-0.2 0,-1.6 -0.3,-1.3 -1.5,0.3 -1.8,-3.2 -2.1,1.3 1.3,1.5 0.3,1.1 -0.8,1.3 0.3,3.1 0.2,1.6 -1.6,2.6 -2.9,0.5 -0.3,2.9 -5.3,3.1 -1.3,0.5 -1.6,-1.5 -3.1,3.6 1,3.2 -1.5,1.3 -0.2,4.4 -1.1,6.3 -2.2,-0.9 -0.5,-3.1 -4,-1.1 -0.2,-2.5 -11.7,-37.43 z m 36.5,15.6 1.5,-1.5 1.4,1.1 0.6,2.4 -1.7,0.9 z m 6.7,-5.9 1.8,1.9 c 0,0 1.3,0.1 1.3,-0.2 0,-0.3 0.2,-2 0.2,-2 l 0.9,-0.8 -0.8,-1.8 -2,0.7 z"
       id="ME" />
    <path
       style="fill:#80aaff"
       inkscape:connector-curvature="0"
       d="m 644.5,211 19.1,-1.9 0.2,1.1 9.9,-1.5 12,-1.7 0.1,-0.6 0.2,-1.5 2.1,-3.7 2,-1.7 -0.2,-5.1 1.6,-1.6 1.1,-0.3 0.2,-3.6 1.5,-3 1.1,0.6 0.2,0.6 0.8,0.2 1.9,-1 -0.4,-9.1 -3.2,-8.2 -2.3,-9.1 -2.4,-3.2 -2.6,-1.8 -1.6,1.1 -3.9,1.8 -1.9,5 -2.7,3.7 -1.1,0.6 -1.5,-0.6 c 0,0 -2.6,-1.5 -2.4,-2.1 0.2,-0.6 0.5,-5 0.5,-5 l 3.4,-1.3 0.8,-3.4 0.6,-2.6 2.4,-1.6 -0.3,-10 -1.6,-2.3 -1.3,-0.8 -0.8,-2.1 0.8,-0.8 1.6,0.3 0.2,-1.6 -2.6,-2.2 -1.3,-2.6 -2.6,0 -4.5,-1.5 -5.5,-3.4 -2.7,0 -0.6,0.6 -1,-0.5 -3.1,-2.3 -2.9,1.8 -2.9,2.3 0.3,3.6 1,0.3 2.1,0.5 0.5,0.8 -2.6,0.8 -2.6,0.3 -1.5,1.8 -0.3,2.1 0.3,1.6 0.3,5.5 -3.6,2.1 -0.6,-0.2 0,-4.2 1.3,-2.4 0.6,-2.4 -0.8,-0.8 -1.9,0.8 -1,4.2 -2.7,1.1 -1.8,1.9 -0.2,1 0.6,0.8 -0.6,2.6 -2.3,0.5 0,1.1 0.8,2.4 -1.1,6.1 -1.6,4 0.6,4.7 0.5,1.1 -0.8,2.4 -0.3,0.8 -0.3,2.7 3.6,6 2.9,6.5 1.5,4.8 -0.8,4.7 -1,6 -2.4,5.2 -0.3,2.7 -3.2,3.1 z m -33.3,-72.4 -1.3,-1.1 -1.8,-10.4 -3.7,-1.3 -1.7,-2.3 -12.6,-2.8 -2.8,-1.1 -8.1,-2.2 -7.8,-1 -3.9,-5.3 0.7,-0.5 2.7,-0.8 3.6,-2.3 0,-1 0.6,-0.6 6,-1 2.4,-1.9 4.4,-2.1 0.2,-1.3 1.9,-2.9 1.8,-0.8 1.3,-1.8 2.3,-2.3 4.4,-2.4 4.7,-0.5 1.1,1.1 -0.3,1 -3.7,1 -1.5,3.1 -2.3,0.8 -0.5,2.4 -2.4,3.2 -0.3,2.6 0.8,0.5 1,-1.1 3.6,-2.9 1.3,1.3 2.3,0 3.2,1 1.5,1.1 1.5,3.1 2.7,2.7 3.9,-0.2 1.5,-1 1.6,1.3 1.6,0.5 1.3,-0.8 1.1,0 1.6,-1 4,-3.6 3.4,-1.1 6.6,-0.3 4.5,-1.9 2.6,-1.3 1.5,0.2 0,5.7 0.5,0.3 2.9,0.8 1.9,-0.5 6.1,-1.6 1.1,-1.1 1.5,0.5 0,7 3.2,3.1 1.3,0.6 1.3,1 -1.3,0.3 -0.8,-0.3 -3.7,-0.5 -2.1,0.6 -2.3,-0.2 -3.2,1.5 -1.8,0 -5.8,-1.3 -5.2,0.2 -1.9,2.6 -7,0.6 -2.4,0.8 -1.1,3.1 -1.3,1.1 -0.5,-0.2 -1.5,-1.6 -4.5,2.4 -0.6,0 -1.1,-1.6 -0.8,0.2 -1.9,4.4 -1,4 -3.2,6.9 z m -29.6,-56.5 1.8,-2.1 2.2,-0.8 5.4,-3.9 2.3,-0.6 0.5,0.5 -5.1,5.1 -3.3,1.9 -2.1,0.9 z m 86.2,32.1 0.6,2.5 3.2,0.2 1.3,-1.2 c 0,0 -0.1,-1.5 -0.4,-1.6 -0.3,-0.2 -1.6,-1.9 -1.6,-1.9 l -2.2,0.2 -1.6,0.2 -0.3,1.1 z"
       id="MI" />
    <path
       style="fill:#55ff00"
       inkscape:connector-curvature="0"
       d="m 464.6,66.79 -0.6,3.91 0,10.27 1.6,5.03 1.9,3.32 0.5,9.93 1.8,13.45 1.8,7.3 0.4,6.4 0,5.3 -1.6,1.8 -1.8,1.3 0,1.5 0.9,1.7 4.1,3.5 0.7,3.2 0,35.9 60.3,-0.6 21.2,-0.7 -0.5,-6 -1.8,-2.1 -7.2,-4.6 -3.6,-5.3 -3.4,-0.9 -2,-2.8 -3.2,0 -3.5,-3.8 -0.5,-7 0.1,-3.9 1.5,-3 -0.7,-2.7 -2.8,-3.1 2.2,-6.1 5.4,-4 1.2,-1.4 -0.2,-8 0.2,-3 2.6,-3 3.8,-2.9 1.3,-0.2 4.5,-5 1.8,-0.8 2.3,-3.9 2.4,-3.6 3.1,-2.6 4.8,-2 9.2,-4.1 3.9,-1.8 0.6,-2.3 -4.4,0.4 -0.7,1.1 -0.6,0 -1.8,-3.1 -8.9,0.3 -1,0.8 -1,0 -0.5,-1.3 -0.8,-1.8 -2.6,0.5 -3.2,3.2 -1.6,0.8 -3.1,0 -2.6,-1 0,-2.1 -1.3,-0.2 -0.5,0.5 -2.6,-1.3 -0.5,-2.9 -1.5,0.5 -0.5,1 -2.4,-0.5 -5.3,-2.4 -3.9,-2.6 -2.9,0 -1.3,-1 -2.3,0.6 -1.1,1.1 -0.3,1.3 -4.8,0 0,-2.1 -6.3,-0.3 -0.3,-1.5 -4.8,0 -1.6,-1.6 -1.5,-6.1 -0.8,-5.5 -1.9,-0.8 -2.3,-0.5 -0.6,0.2 -0.3,8.2 -30.1,-0.03 z"
       id="MN" />
    <path
       style="fill:#ff8080"
       inkscape:connector-curvature="0"
       d="m 593.1,338.7 0.5,-5.9 4.2,-3.4 1.9,-1 0,-2.9 0.7,-1.6 -1.1,-1.6 -2.4,0.3 -2.1,-2.5 -1.7,-4.5 0.9,-2.6 -2,-3.2 -1.8,-4.6 -4.6,-0.7 -6.8,-5.6 -2.2,-4.2 0.8,-3.3 2.2,-6 0.6,-3 -1.9,-1 -6.9,-0.6 -1.1,-1.9 0,-4.1 -5.3,-3.5 -7.2,-7.8 -2.3,-7.3 -0.5,-4.2 0.7,-2.4 -2.6,-3.1 -1.2,-2.4 -7.7,0.8 -10,0.6 -48.8,1.2 1.3,2.6 -0.1,2.2 2.3,3.6 3,3.9 3.1,3 2.6,0.2 1.4,1.1 0,2.9 -1.8,1.6 -0.5,2.3 2.1,3.2 2.4,3 2.6,2.1 1.3,11.6 -0.8,40 0.5,5.7 23.7,-0.2 23.3,-0.7 32.5,-1.3 2.2,3.7 -0.8,3.1 -3.1,2.5 -0.5,1.8 5.2,0.5 4.1,-1.1 z"
       id="MO" />
    <path
       style="fill:#ff8080"
       inkscape:connector-curvature="0"
       d="m 604.3,472.5 2.6,-4.2 1.8,0.8 6.8,-1.9 2.1,0.3 1.5,0.8 5.2,0 0.4,-1.6 -1.7,-14.8 -2.8,-19 1,-45.1 -0.2,-16.7 0.2,-6.3 -4.8,0.3 -19.6,1.6 -13,0.4 -0.2,3.2 -2.8,1.3 -2.6,5.1 0.5,1.6 0.1,2.4 -2.9,1.1 -3.5,5.1 0.8,2.3 -3,2.5 -1,5.7 -0.6,1.9 1.6,2.5 -1.5,1.4 1.5,2.8 0.3,4.2 -1.2,2.5 -0.2,0.9 0.4,5 2,4.5 -0.1,1.7 2.3,2 -0.7,3.1 -0.9,0.3 0.6,1.9 -8.6,15 -0.8,8.2 0.5,1.5 24.2,-0.7 8.2,-0.7 1.9,-0.3 0.6,1.4 -1,7.1 3.3,3.3 2.2,6.4 z"
       id="MS" />
    <path
       style="fill:#55ff00"
       inkscape:connector-curvature="0"
       d="m 361.1,70.77 -5.3,57.13 -1.3,15.2 -59.1,-6.6 -49,-7.1 -1.4,11.2 -1.9,-1.7 -0.4,-2.5 -1.3,-1.9 -3.3,1.5 -0.7,2.5 -2.3,0.3 -3.8,-1.6 -4.1,0.1 -2.4,0.7 -3.2,-1.5 -3,0.2 -2.1,1.9 -0.9,-0.6 -0.7,-3.4 0.7,-3.2 -2.7,-3.2 -3.3,-2.5 -2.5,-12.6 -0.1,-5.3 -1.6,-0.8 -0.6,1 -4.5,3.2 -1.2,-0.1 -2.3,-2.8 -0.2,-2.8 7,-17.15 -0.6,-2.67 -3.5,-1.12 -0.4,-0.91 -2.7,-3.5 -4.6,-10.41 -3.2,-1.58 -1.8,-4.26 1.3,-4.63 -3.2,-7.57 4.4,-21.29 32.7,6.89 18.4,3.4 32.3,5.3 29.3,4 29.2,3.5 30.8,3.07 z"
       id="MT" />
    <path
       style="fill:#80d5ff"
       inkscape:connector-curvature="0"
       d="M 786.7,357.7 774,350 l -3.1,-0.8 -16.6,2.1 -1.6,-3 -2.8,-2.2 -16.7,0.5 -7.4,0.9 -9.2,4.5 -6.8,2.7 -6.5,1.2 -13.4,1.4 0.1,-4.1 1.7,-1.3 2.7,-0.7 0.7,-3.8 3.9,-2.5 3.9,-1.5 4.5,-3.7 4.4,-2.3 0.7,-3.2 4.1,-3.8 0.7,1 2.5,0.2 2.4,-3.6 1.7,-0.4 2.6,0.3 1.8,-4 2.5,-2.4 0.5,-1.8 0.1,-3.5 4.4,0.1 38.5,-5.6 57.5,-12.3 2,4.8 3.6,6.5 2.4,2.4 0.6,2.3 -2.4,0.2 0.8,0.6 -0.3,4.2 -2.6,1.3 -0.6,2.1 -1.3,2.9 -3.7,1.6 -2.4,-0.3 -1.5,-0.2 -1.6,-1.3 0.3,1.3 0,1 1.9,0 0.8,1.3 -1.9,6.3 4.2,0 0.6,1.6 2.3,-2.3 1.3,-0.5 -1.9,3.6 -3.1,4.8 -1.3,0 -1.1,-0.5 -2.7,0.6 -5.2,2.4 -6.5,5.3 -3.4,4.7 -1.9,6.5 -0.5,2.4 -4.7,0.5 -5.1,1.5 z m 49.3,-26.2 2.6,-2.5 3.2,-2.6 1.5,-0.6 0.2,-2 -0.6,-6.1 -1.5,-2.3 -0.6,-1.9 0.7,-0.2 2.7,5.5 0.4,4.4 -0.2,3.4 -3.4,1.5 -2.8,2.4 -1.1,1.2 z"
       id="NC" />
    <path
       style="fill:#55ff00"
       inkscape:connector-curvature="0"
       d="m 471,126.4 -0.4,-6.2 -1.8,-7.3 -1.8,-13.61 -0.5,-9.7 -1.9,-3.18 -1.6,-5.32 0,-10.41 0.6,-3.85 -1.8,-5.54 -28.6,-0.59 -18.6,-0.6 -26.5,-1.3 -25.2,-2.16 -0.9,14.42 -4.7,50.94 56.8,3.9 56.9,1.7 z"
       id="ND" />
    <path
       style="fill:#55ff00"
       inkscape:connector-curvature="0"
       d="m 470.3,204.3 -1,-2.3 -0.5,-1.6 -2.9,-1.6 -4.8,-1.5 -2.2,-1.2 -2.6,0.1 -3.7,0.4 -4.2,1.2 -6,-4.1 -2.2,-2 -10.7,0.6 -41.5,-2.4 -35.6,-2.2 -4.3,43.7 33.1,3.3 -1.4,21.1 21.7,1 40.6,1.2 43.8,0.6 4.5,0 -2.2,-3 -2.6,-3.9 0.1,-2.3 -1.4,-2.7 -1.9,-5.2 -0.4,-6.7 -1.4,-4.1 -0.5,-5 -2.3,-3.7 -1,-4.7 -2.8,-7.9 -1,-5.3 z"
       id="NE" />
    <path
       style="fill:#ffd580"
       inkscape:connector-curvature="0"
       d="m 881.7,141.3 1.1,-3.2 -2.7,-1.2 -0.5,-3.1 -4.1,-1.1 -0.3,-3 -11.7,-37.48 -0.7,0.08 -0.6,1.6 -0.6,-0.5 -1,-1 -1.5,1.9 -0.2,2.29 0.5,8.41 1.9,2.8 0,4.3 -3.9,4.8 -2.4,0.9 0,0.7 1.1,1.9 0,8.6 -0.8,9.2 -0.2,4.7 1,1.4 -0.2,4.7 -0.5,1.5 1,1.1 5.1,-1.2 13.8,-3.5 1.7,-2.9 4,-1.9 z"
       id="NH" />
    <path
       style="fill:#ffd580"
       inkscape:connector-curvature="0"
       d="m 823.7,228.3 0.1,-1.5 2.7,-1.3 1.7,-2.8 1.7,-2.4 3.3,-3.2 0,-1.2 -6.1,-4.1 -1,-2.7 -2.7,-0.3 -0.1,-0.9 -0.7,-2.2 2.2,-1.1 0.2,-2.9 -1.3,-1.3 0.2,-1.2 1.9,-3.1 0,-3.1 2.5,-3.1 5.6,2.5 6.4,1.9 2.5,1.2 0.1,1.8 -0.5,2.7 0.4,4.5 -2.1,1.9 -1.1,1 0.5,0.5 2.7,-0.3 1.1,-0.8 1.6,3.4 0.2,9.4 0.6,1.1 -1.1,5.5 -3.1,6.5 -2.7,4 -0.8,4.8 -2.1,2.4 -0.8,0 -0.3,-2.7 0.8,-1 -0.2,-1.5 -4,-0.6 -4.8,-2.3 -3.2,-2.9 -1,-2 z"
       id="NJ" />
    <path
       style="fill:#aa80ff"
       inkscape:connector-curvature="0"
       d="m 270.2,429.4 -16.7,-2.6 -1.2,9.6 -15.8,-2 6,-39.7 7,-53.2 4.4,-30.9 34,3.9 37.4,4.4 32,2.8 -0.3,10.8 -1.4,-0.1 -7.4,97.7 -28.4,-1.8 -38.1,-3.7 0.7,6.3 z"
       id="NM" />
    <path
       style="fill:#55ff00;fill-opacity:1"
       inkscape:connector-curvature="0"
       d="m 123.1,173.6 38.7,8.5 26,5.2 -10.6,53.1 -5.4,29.8 -3.3,15.5 -2.1,11.1 -2.6,16.4 -1.7,3.1 -1.6,-0.1 -1.2,-2.6 -2.8,-0.5 -1.3,-1.1 -1.8,0.1 -0.9,0.8 -1.8,1.3 -0.3,7.3 -0.3,1.5 -0.5,12.4 -1.1,1.8 -16.7,-25.5 -42.1,-62.1 -12.43,-19 8.55,-32.6 8.01,-31.3 z"
       id="NV" />
    <path
       style="fill:#ffd580"
       inkscape:connector-curvature="0"
       d="m 843.4,200 0.5,-2.7 -0.2,-2.4 -3,-1.5 -6.5,-2 -6,-2.6 -0.6,-0.4 -2.7,-0.3 -2,-1.5 -2.1,-5.9 -3.3,-0.5 -2.4,-2.4 -38.4,8.1 -31.6,6 -0.5,-6.5 1.6,-1.2 1.3,-1.1 1,-1.6 1.8,-1.1 1.9,-1.8 0.5,-1.6 2.1,-2.7 1.1,-1 -0.2,-1 -1.3,-3.1 -1.8,-0.2 -1.9,-6.1 2.9,-1.8 4.4,-1.5 4,-1.3 3.2,-0.5 6.3,-0.2 1.9,1.3 1.6,0.2 2.1,-1.3 2.6,-1.1 5.2,-0.5 2.1,-1.8 1.8,-3.2 1.6,-1.9 2.1,0 1.9,-1.1 0.2,-2.3 -1.5,-2.1 -0.3,-1.5 1.1,-2.1 0,-1.5 -1.8,0 -1.8,-0.8 -0.8,-1.1 -0.2,-2.6 5.8,-5.5 0.6,-0.8 1.5,-2.9 2.9,-4.5 2.7,-3.7 2.1,-2.4 2.4,-1.8 3.1,-1.2 5.5,-1.3 3.2,0.2 4.5,-1.5 7.4,-2.2 0.7,4.9 2.4,6.5 0.8,5 -1,4.2 2.6,4.5 0.8,2 -0.9,3.2 3.7,1.7 2.7,10.2 0,5.8 -0.6,10.9 0.8,5.4 0.7,3.6 1.5,7.3 0,8.1 -1.1,2.3 2.1,2.7 0.5,0.9 -1.9,1.8 0.3,1.3 1.3,-0.3 1.5,-1.3 2.3,-2.6 1.1,-0.6 1.6,0.6 2.3,0.2 7.9,-3.9 2.9,-2.7 1.3,-1.5 4.2,1.6 -3.4,3.6 -3.9,2.9 -7.1,5.3 -2.6,1 -5.8,1.9 -4,1.1 -1,-0.4 z"
       id="NY" />
    <path
       style="fill:#80aaff"
       inkscape:connector-curvature="0"
       d="m 663.8,211.2 1.7,15.5 4.8,41.1 3.9,-0.2 2.3,-0.8 3.6,1.8 1.7,4.2 5.4,0.1 1.8,2 1.7,0 2.4,-1.4 3.1,0.5 1.5,1.3 1.8,-2 2.3,-1.4 2.4,-0.4 0.6,2.7 1.6,1 2.6,2 0.8,0.2 2,-0.1 1.2,-0.6 0,-2.1 1.7,-1.5 0.1,-4.8 1.1,-4.2 1.9,-1.3 1,0.7 1,1.1 0.7,0.2 0.4,-0.4 -0.9,-2.7 0,-2.2 1.1,-1.4 2.5,-3.6 1.3,-1.5 2.2,0.5 2.1,-1.5 3,-3.3 2.2,-3.7 0.2,-5.4 0.5,-5 0,-4.6 -1.2,-3.2 1.2,-1.8 1.3,-1.2 -0.6,-2.8 -4.3,-25.6 -6.2,3.7 -3.9,2.3 -3.4,3.7 -4,3.9 -3.2,0.8 -2.9,0.5 -5.5,2.6 -2.1,0.2 -3.4,-3.1 -5.2,0.6 -2.6,-1.5 -2.2,-1.3 z"
       id="OH" />
    <path
       style="fill:#ff8080"
       inkscape:connector-curvature="0"
       d="m 411.9,334.9 -1.8,24.3 -0.9,18 0.2,1.6 4,3.6 1.7,0.9 0.9,0 0.9,-2.1 1.5,1.9 1.6,0.1 0.3,-0.2 0.2,-1.1 2.8,1.4 -0.4,3.5 3.8,0.5 2.5,1 4.2,0.6 2.3,1.6 2.5,-1.7 3.5,0.7 2.2,3.1 1.2,0.1 0,2.3 2.1,0.7 2.5,-2.1 1.8,0.6 2.7,0.1 0.7,2.3 4.4,1.8 1.7,-0.3 1.9,-4.2 1.3,0 1.1,2.1 4.2,0.8 3.4,1.3 3,0.8 1.6,-0.7 0.7,-2.7 4.5,0 1.9,0.9 2.7,-1.9 1.4,0 0.6,1.4 3.6,0 2,-1.8 2.3,0.6 1.7,2.2 3,1.7 3.4,0.9 1.9,1.2 -0.3,-37.6 -1.4,-10.9 -0.1,-8.6 -1.5,-6.6 -0.6,-6.8 0.1,-4.3 -12.6,0.3 -46.3,-0.5 -44.7,-2.1 -41.5,-1.8 -0.4,10.7 z"
       id="OK" />
    <path
       style="fill:#55ff00"
       inkscape:connector-curvature="0"
       d="m 67.44,158.9 28.24,7.2 27.52,6.5 17,3.7 8.8,-35.1 1.2,-4.4 2.4,-5.5 -0.7,-1.3 -2.5,0.1 -1.3,-1.8 0.6,-1.5 0.4,-3.3 4.7,-5.7 1.9,-0.9 0.9,-0.8 0.7,-2.7 0.8,-1.1 3.9,-5.7 3.7,-4 0.2,-3.26 -3.4,-2.49 -1.2,-4.55 -13.1,-3.83 -15.3,-3.47 -14.8,0.37 -1.1,-1.31 -5.1,1.84 -4.5,-0.48 -2.4,-1.58 -1.3,0.54 -4.68,-0.29 -1.96,-1.43 -4.84,-1.77 -1.1,-0.07 -4.45,-1.27 -1.76,1.52 -6.26,-0.24 -5.31,-3.85 0.21,-9.28 -2.05,-3.5 -4.1,-0.6 -0.7,-2.5 -2.4,-0.5 -5.8,2.1 -2.3,6.5 -3.2,10 -3.2,6.5 -5,14.1 -6.5,13.6 -8.1,12.6 -1.9,2.9 -0.8,8.6 -1.3,6 2.71,3.5 z"
       id="OR" />
    <path
       style="fill:#80d5ff"
       inkscape:connector-curvature="0"
       d="m 736.6,192.2 1.3,-0.5 5.7,-5.5 0.7,6.9 33.5,-6.5 36.9,-7.8 2.3,2.3 3.1,0.4 2,5.6 2.4,1.9 2.8,0.4 0.1,0.1 -2.6,3.2 0,3.1 -1.9,3.1 -0.2,1.9 1.3,1.3 -0.2,1.9 -2.4,1.1 1,3.4 0.2,1.1 2.8,0.3 0.9,2.5 5.9,3.9 0,0.4 -3.1,3 -1.5,2.2 -1.7,2.8 -2.7,1.2 -1.4,0.3 -2.1,1.3 -1.6,1.4 -22.4,4.3 -38.7,7.8 -11.3,1.4 -3.9,0.7 -5.1,-22.4 -4.3,-25.9 z"
       id="PA" />
    <path
       style="fill:#ffd580;fill-opacity:1"
       inkscape:connector-curvature="0"
       d="m 873.6,175.7 -0.8,-4.4 -1.6,-6 5.7,-1.5 1.5,1.3 3.4,4.3 2.8,4.4 -2.8,1.4 -1.3,-0.2 -1.1,1.8 -2.4,1.9 -2.8,1.1 z"
       id="RI" />
    <path
       style="fill:#80d5ff"
       inkscape:connector-curvature="0"
       d="m 759,413.6 -2.1,-1 -1.9,-5.6 -2.5,-2.3 -2.5,-0.5 -1.5,-4.6 -3,-6.5 -4.2,-1.8 -1.9,-1.8 -1.2,-2.6 -2.4,-2 -2.3,-1.3 -2.2,-2.9 -3.2,-2.4 -4.4,-1.7 -0.4,-1.4 -2.3,-2.8 -0.5,-1.5 -3.8,-5.4 -3.4,0.1 -3.9,-2.5 -1.2,-1.2 -0.2,-1.4 0.6,-1.6 2.7,-1.3 -0.8,-2 6.4,-2.7 9.2,-4.5 7.1,-0.9 16.4,-0.5 2.3,1.9 1.8,3.5 4.6,-0.8 12.6,-1.5 2.7,0.8 12.5,7.4 10.1,8.3 -5.3,5.4 -2.6,6.1 -0.5,6.3 -1.6,0.8 -1.1,2.7 -2.4,0.6 -2.1,3.6 -2.7,2.7 -2.3,3.4 -1.6,0.8 -3.6,3.4 -2.9,0.2 1,3.2 -5,5.3 -2.3,1.6 z"
       id="SC" />
    <path
       style="fill:#55ff00"
       inkscape:connector-curvature="0"
       d="m 471,181.1 -0.9,3.2 0.4,3 2.6,2 -1.2,5.4 -1.8,4.1 1.5,3.3 0.7,1.1 -1.3,0.1 -0.7,-1.6 -0.6,-2 -3.3,-1.8 -4.8,-1.5 -2.5,-1.3 -2.9,0.1 -3.9,0.4 -3.8,1.2 -5.3,-3.8 -2.7,-2.4 -10.9,0.8 -41.5,-2.4 -35.6,-2.2 1.5,-24.8 2.8,-34 0.4,-5 56.9,3.9 56.9,1.7 0,2.7 -1.3,1.5 -2,1.5 -0.1,2.2 1.1,2.2 4.1,3.4 0.5,2.7 0,35.9 z"
       id="SD" />
    <path
       style="fill:#ff8080"
       inkscape:connector-curvature="0"
       d="m 670.8,359.6 -13.1,1.2 -23.3,2.2 -37.6,2.7 -11.8,0.4 0.9,-0.6 0.9,-4.5 -1.2,-3.6 3.9,-2.3 0.4,-2.5 1.2,-4.3 3,-9.5 0.5,-5.6 0.3,-0.2 12.3,-0.2 13.6,-0.8 0.1,-3.9 3.5,-0.1 30.4,-3.3 54,-5.2 10.3,-1.5 7.6,-0.2 2.4,-1.9 1.3,0.3 -0.1,3.3 -0.4,1.6 -2.4,2.2 -1.6,3.6 -2,-0.4 -2.4,0.9 -2.2,3.3 -1.4,-0.2 -0.8,-1.2 -1.1,0.4 -4.3,4 -0.8,3.1 -4.2,2.2 -4.3,3.6 -3.8,1.5 -4.4,2.8 -0.6,3.6 -2.5,0.5 -2,1.7 -0.2,4.8 z"
       id="TN" />
    <path
       style="fill:#aa80ff"
       inkscape:connector-curvature="0"
       d="m 282.8,425.6 37,3.6 29.3,1.9 7.4,-97.7 54.4,2.4 -1.7,23.3 -1,18 0.2,2 4.4,4.1 2,1.1 1.8,0 0.5,-1.2 0.7,0.9 2.4,0.2 1.1,-0.6 0,-0.2 1,0.5 -0.4,3.7 4.5,0.7 2.4,0.9 4.2,0.7 2.6,1.8 2.8,-1.9 2.7,0.6 2.2,3.1 0.8,0.1 0,2.1 3.3,1.1 2.5,-2.1 1.5,0.5 2.1,0.1 0.6,2.1 5.2,2 2.3,-0.5 1.9,-4 0.1,0 1.1,1.9 4.6,0.9 3.4,1.3 3.2,1 2.4,-1.2 0.7,-2.3 3.6,0 2.1,1 3,-2 0.4,0 0.5,1.4 4.7,0 1.9,-1.8 1.3,0.4 1.7,2.1 3.3,1.9 3.4,1 2.5,1.4 2.7,2 3.1,-1.2 2.1,0.8 0.7,20 0.7,9.5 0.6,4.1 2.6,4.4 0.9,4.5 4.2,5.9 0.3,3.1 0.6,0.8 -0.7,7.7 -2.9,4.8 1.3,2.6 -0.5,2.4 -0.8,7.2 -1.3,3 0.3,4.2 -5.6,1.6 -9.9,4.5 -1,1.9 -2.6,1.9 -2.1,1.5 -1.3,0.8 -5.7,5.3 -2.7,2.1 -5.3,3.2 -5.7,2.4 -6.3,3.4 -1.8,1.5 -5.8,3.6 -3.4,0.6 -3.9,5.5 -4,0.3 -1,1.9 2.3,1.9 -1.5,5.5 -1.3,4.5 -1.1,3.9 -0.8,4.5 0.8,2.4 1.8,7 1,6.1 1.8,2.7 -1,1.5 -3.1,1.9 -5.7,-3.9 -5.5,-1.1 -1.3,0.5 -3.2,-0.6 -4.2,-3.1 -5.2,-1.1 -7.6,-3.4 -2.1,-3.9 -1.3,-6.5 -3.2,-1.9 -0.6,-2.3 0.6,-0.6 0.3,-3.4 -1.3,-0.6 -0.6,-1 1.3,-4.4 -1.6,-2.3 -3.2,-1.3 -3.4,-4.4 -3.6,-6.6 -4.2,-2.6 0.2,-1.9 -5.3,-12.3 -0.8,-4.2 -1.8,-1.9 -0.2,-1.5 -6,-5.3 -2.6,-3.1 0,-1.1 -2.6,-2.1 -6.8,-1.1 -7.4,-0.6 -3.1,-2.3 -4.5,1.8 -3.6,1.5 -2.3,3.2 -1,3.7 -4.4,6.1 -2.4,2.4 -2.6,-1 -1.8,-1.1 -1.9,-0.6 -3.9,-2.3 0,-0.6 -1.8,-1.9 -5.2,-2.1 -7.4,-7.8 -2.3,-4.7 0,-8.1 -3.2,-6.5 -0.5,-2.7 -1.6,-1 -1.1,-2.1 -5,-2.1 -1.3,-1.6 -7.1,-7.9 -1.3,-3.2 -4.7,-2.3 -1.5,-4.4 -2.6,-2.9 -1.7,-0.5 z m 174.4,141.7 -0.6,-7.1 -2.7,-7.2 -0.6,-7 1.5,-8.2 3.3,-6.9 3.5,-5.4 3.2,-3.6 0.6,0.2 -4.8,6.6 -4.4,6.5 -2,6.6 -0.3,5.2 0.9,6.1 2.6,7.2 0.5,5.2 0.2,1.5 z"
       id="TX" />
    <path
       style="fill:#aa80ff"
       inkscape:connector-curvature="0"
       d="m 228.4,305.9 24.6,3.6 1.9,-13.7 7,-50.5 2.3,-22 -32.2,-3.5 2.2,-13.1 1.8,-10.6 -34.7,-6.1 -12.5,-2.5 -10.6,52.9 -5.4,30 -3.3,15.4 -1.7,9.2 z"
       id="UT" />
    <path
       style="fill:#80d5ff"
       inkscape:connector-curvature="0"
       d="m 834.7,265.2 -0.2,2.8 -2.9,3.8 -0.4,4.6 0.5,3.4 -1.8,5 -2.2,1.9 -1.5,-4.6 0.4,-5.4 1.6,-4.2 0.7,-3.3 -0.1,-1.7 z m -60.3,44.6 -38.6,5.6 -4.8,-0.1 -2.2,-0.3 -2.5,1.9 -7.3,0.1 -10.3,1.6 -6.7,0.6 4.1,-2.6 4.1,-2.3 0,-2.1 5.7,-7.3 4.1,-3.7 2.2,-2.5 3.6,4.3 3.8,0.9 2.7,-1 2,-1.5 2.4,1.2 4.6,-1.3 1.7,-4.4 2.4,0.7 3.2,-2.3 1.6,0.4 2.8,-3.2 0.2,-2.7 -0.8,-1.2 4.8,-10.5 1.8,-5.2 0.5,-4.7 0.7,-0.2 1.1,1.7 1.5,1.2 3.9,-0.2 1.7,-8.1 3,-0.6 0.8,-2.6 2.8,-2.2 1.1,-2.1 1.8,-4.3 0.1,-4.6 3.6,1.4 6.6,3.1 0.3,-5.2 3.4,1.2 -0.6,2.9 8.6,3.1 1.4,1.8 -0.8,3.3 -1.3,1.3 -0.5,1.7 0.5,2.4 2,1.3 3.9,1.4 2.9,1 4.9,0.9 2.2,2.1 3.2,0.4 0.9,1.2 -0.4,4.7 1.4,1.1 -0.5,1.9 1.2,0.8 -0.2,1.4 -2.7,-0.1 0.1,1.6 2.3,1.5 0.1,1.4 1.8,1.8 0.5,2.5 -2.6,1.4 1.6,1.5 5.8,-1.7 3.7,6.2 z"
       id="VA" />
    <path
       style="fill:#ffd580"
       inkscape:connector-curvature="0"
       d="m 832.7,111.3 2.4,6.5 0.8,5.3 -1,3.9 2.5,4.4 0.9,2.3 -0.7,2.6 3.3,1.5 2.9,10.8 0,5.3 11.5,-2.1 -1,-1.1 0.6,-1.9 0.2,-4.3 -1,-1.4 0.2,-4.7 0.8,-9.3 0,-8.5 -1.1,-1.8 0,-1.6 2.8,-1.1 3.5,-4.4 0,-3.6 -1.9,-2.7 -0.3,-5.79 -26.1,6.79 z"
       id="VT" />
    <path
       style="fill:#55ff00"
       inkscape:connector-curvature="0"
       d="m 74.5,67.7 -2.3,-4.3 -4.1,-0.7 -0.4,-2.4 -2.5,-0.6 -2.9,-0.5 -1.8,1 -2.3,-2.9 0.3,-2.9 2.7,-0.3 1.6,-4 -2.6,-1.1 0.2,-3.7 4.4,-0.6 -2.7,-2.7 -1.5,-7.1 0.6,-2.9 0,-7.9 -1.8,-3.2 2.3,-9.4 2.1,0.5 2.4,2.9 2.7,2.6 3.2,1.9 4.5,2.1 3.1,0.6 2.9,1.5 3.4,1 2.3,-0.2 0,-2.4 1.3,-1.1 2.1,-1.3 0.3,1.1 0.3,1.8 -2.3,0.5 -0.3,2.1 1.8,1.5 1.1,2.4 0.6,1.9 1.5,-0.2 0.2,-1.3 -1,-1.3 -0.5,-3.2 0.8,-1.8 -0.6,-1.5 0,-2.6 1.8,-3.6 -1.1,-2.6 -2.4,-4.8 0.3,-0.8 1.4,-0.8 4.4,1.5 9.7,2.7 8.6,1.9 20,5.7 23,5.7 15,3.49 -4.8,17.56 -4.5,20.83 -3.4,16.25 -0.4,9.18 0,0 -12.9,-3.72 -15.3,-3.47 -14.5,0.32 -1.1,-1.53 -5.7,2.09 -3.9,-0.42 -2.6,-1.79 -1.7,0.65 -4.15,-0.25 -1.72,-1.32 -5.16,-1.82 -1.18,-0.16 -4.8,-1.39 -1.92,1.65 -5.65,-0.25 -4.61,-3.35 z m 9.6,-55.4 2,-0.2 0.5,1.4 1.5,-1.6 2.3,0 0.8,1.5 -1.5,1.7 0.6,0.8 -0.7,2 -1.4,0.4 c 0,0 -0.9,0.1 -0.9,-0.2 0,-0.3 1.5,-2.6 1.5,-2.6 l -1.7,-0.6 -0.3,1.5 -0.7,0.6 -1.5,-2.3 z"
       id="WA" />
    <path
       style="fill:#80aaff"
       inkscape:connector-curvature="0"
       d="m 541.4,109.9 2.9,0.5 2.9,-0.6 7.4,-3.2 2.9,-1.9 2.1,-0.8 1.9,1.5 -1.1,1.1 -1.9,3.1 -0.6,1.9 1,0.6 1.8,-1 1.1,-0.2 2.7,0.8 0.6,1.1 1.1,0.2 0.6,-1.1 4,5.3 8.2,1.2 8.2,2.2 2.6,1.1 12.3,2.6 1.6,2.3 3.6,1.2 1.7,10.2 1.6,1.4 1.5,0.9 -1.1,2.3 -1.8,1.6 -2.1,4.7 -1.3,2.4 0.2,1.8 1.5,0.3 1.1,-1.9 1.5,-0.8 0.8,-2.3 1.9,-1.8 2.7,-4 4.2,-6.3 0.8,-0.5 0.3,1 -0.2,2.3 -2.9,6.8 -2.7,5.7 -0.5,3.2 -0.6,2.6 0.8,1.3 -0.2,2.7 -1.9,2.4 -0.5,1.8 0.6,3.6 0.6,3.4 -1.5,2.6 -0.8,2.9 -1,3.1 1.1,2.4 0.6,6.1 1.6,4.5 -0.2,3 -15.9,1.8 -17.5,1 -12.7,0 -0.7,-1.5 -2.9,-0.4 -2.6,-1.3 -2.3,-3.7 -0.3,-3.6 2,-2.9 -0.5,-1.4 -2.1,-2.2 -0.8,-3.3 -0.6,-6.8 -2.1,-2.5 -7,-4.5 -3.8,-5.4 -3.4,-1 -2.2,-2.8 -3.2,0 -2.9,-3.3 -0.5,-6.5 0.1,-3.8 1.5,-3.1 -0.8,-3.2 -2.5,-2.8 1.8,-5.4 5.2,-3.8 1.6,-1.9 -0.2,-8.1 0.2,-2.8 2.4,-2.8 z"
       id="WI" />
    <path
       style="fill:#80aaff;fill-opacity:1"
       inkscape:connector-curvature="0"
       d="m 758.9,254.3 5.8,-6 2.6,-0.8 1.6,-1.5 1.5,-2.2 1.1,0.3 3.1,-0.2 4.6,-3.6 1.5,-0.5 1.3,1 2.6,1.2 3,3 -0.4,4.3 -5.4,-2.6 -4.8,-1.8 -0.1,5.9 -2.6,5.7 -2.9,2.4 -0.8,2.3 -3,0.5 -1.7,8.1 -2.8,0.2 -1.1,-1 -1.2,-2 -2.2,0.5 -0.5,5.1 -1.8,5.1 -5,11 0.9,1.4 -0.1,2 -2.2,2.5 -1.6,-0.4 -3.1,2.3 -2.8,-0.8 -1.8,4.9 -3.8,1 -2.5,-1.3 -2.5,1.9 -2.3,0.7 -3.2,-0.8 -3.8,-4.5 -3.5,-2.2 -2.5,-2.5 -2.9,-3.7 -0.5,-2.3 -2.8,-1.7 -0.6,-1.3 -0.2,-5.6 0.3,0.1 2.4,-0.2 1.8,-1 0,-2.2 1.7,-1.5 0.1,-5.2 0.9,-3.6 1.1,-0.7 0.4,0.3 1,1.1 1.7,0.5 1.1,-1.3 -1,-3.1 0,-1.6 3.1,-4.6 1.2,-1.3 2,0.5 2.6,-1.8 3.1,-3.4 2.4,-4.1 0.2,-5.6 0.5,-4.8 0,-4.9 -1.1,-3 0.9,-1.3 0.8,-0.7 4.3,19.3 4.3,-0.8 11.2,-1.3 z"
       id="WV" />
    <path
       style="fill:#55ff00"
       inkscape:connector-curvature="0"
       d="m 353,161.9 -1.5,25.4 -4.4,44 -2.7,-0.3 -83.3,-9.1 -27.9,-3 2,-12 6.9,-41 3.8,-24.2 1.3,-11.2 48.2,7 59.1,6.5 z"
       id="WY" />
    <path
       id="DC1"
       d="m 801.8,253.8 -1.1,-1.6 -1,-0.8 1.1,-1.6 2.2,1.5 z"
       inkscape:connector-curvature="0"
       style="fill:#d3d3d3" />
    <circle
       id="DC2"
       cx="801.29999"
       cy="251.8"
       r="5"
       style="opacity:1;fill:#80d5ff;stroke:#ffffff;stroke-width:1.5" />
    <path
       style="font-style:normal;font-variant:normal;font-weight:normal;font-stretch:normal;font-size:10px;line-height:100%;font-family:Arial;-inkscape-font-specification:Arial;text-align:center;writing-mode:lr-tb;text-anchor:middle;fill:#80ffd5;fill-opacity:1;fill-rule:evenodd;stroke:none;stroke-width:1.27559996;stroke-linejoin:round;stroke-miterlimit:3.8636899"
       d="m 921.60627,580.85377 c -0.64304,0.0241 -1.61101,0.30584 -1.56437,1.0867 0.33075,0.44607 0.42511,1.13291 -0.23007,1.33063 -0.51847,0.4717 -1.30498,0.46267 -1.84129,0.82204 0.2321,0.45421 0.47398,0.95678 0.78015,1.35838 0.41539,0.0513 0.97932,0.11535 0.90161,0.68251 0.29608,0.48263 0.39149,0.98726 0.69512,1.41115 -0.3941,0.44778 -0.66296,0.71788 -0.55292,1.25688 -0.10823,0.38307 -0.10417,0.88431 -0.37565,1.25952 -0.0366,0.0633 0.56739,0.22998 0.0593,0.29714 -0.041,0.40503 -0.52168,0.75463 0.19002,0.76493 0.47115,0.30702 0.19849,0.33232 0.43671,0.46687 -0.45555,0.13491 -0.22795,-0.13268 -0.84208,0.20308 -0.4142,0.57222 -0.0515,0.97182 0.28301,1.2064 -0.18606,0.22089 0.14452,0.28536 0.12283,0.19006 0.0393,-0.0154 -0.2379,-0.91329 0.40064,-0.65098 0.41922,0.24835 1.24891,0.61986 1.57851,0.13084 0.14695,-0.0492 0.37416,-0.53274 1.01727,-0.32507 0.70157,0.4741 0.78479,-0.3961 1.11666,0.34232 0.23774,0.22999 1.03255,0.79377 1.25671,0.47833 -0.77662,-0.2018 0.76738,-0.28269 -0.025,-0.59102 -0.44549,-0.23002 0.12474,-0.24006 0.31598,-0.0576 -0.30393,0.58945 1.42879,0.18987 0.90145,0.28728 0.37171,0.0198 1.00012,-0.16272 1.45845,-0.45805 0.41362,-0.69284 -0.49049,0.33743 -0.36071,-0.26874 0.33373,0.13305 0.0285,-0.34771 0.51658,-0.29765 0.60998,-0.51814 0.64805,0.61998 0.50691,0.49658 0.29109,-0.68632 0.93402,-0.17314 1.34468,0.0687 0.48137,0.47059 1.04895,-0.66525 1.46185,-0.0157 -0.21924,0.27847 0.79106,0.102 1.09851,0.12269 0.74779,-0.1878 1.76625,-0.93629 2.41321,-0.17865 0.24559,0.40307 0.85657,0.57083 1.21836,0.7205 0.33049,-0.33087 0.80634,-0.98782 1.30561,-0.69106 0.36005,0.60755 0.68325,0.51094 1.19878,0.80295 0.1407,-0.13329 0.58499,0.24962 0.47269,-0.17279 0.24549,-0.41172 0.69227,-0.42926 1.05701,-0.12355 0.29895,0.25762 -1.31351,0.10218 -0.28082,0.41088 0.56204,-0.0675 0.94712,0.0562 1.45871,-0.37258 0.43974,0.0108 0.84075,-0.71632 1.25808,-0.20825 0.48242,0.4161 0.60495,-0.73245 1.18148,-0.43898 0.43633,0.3919 1.08029,0.16069 1.64232,0.0814 0.53715,-0.34081 1.12029,-0.79326 1.73631,-0.83448 0.0532,-0.3121 -0.13504,-1.01787 0.35444,-0.97741 0.48352,0.33604 0.23248,-0.55586 0.54971,-0.63379 0.10673,-0.61551 0.3017,-1.34566 0.93286,-1.58987 0.0757,-0.55506 0.68225,-0.57995 0.97689,-0.24867 -0.2103,-0.37237 0.56821,-0.73054 0.81969,-0.47059 0.95872,0.33043 -0.14706,-0.87368 0.59747,-0.67242 0.36703,0.82474 0.15925,-0.0633 0.55775,0.16363 0.13343,-0.14254 -0.49155,-0.56727 -0.24783,-0.78692 -0.37872,0.45033 -0.6094,-0.3387 -0.35204,-0.43457 -0.50595,0.11286 0.13278,-0.43797 -0.0817,-0.61465 0.1647,-0.43213 -0.35083,-0.70887 0.0876,-1.01654 -0.0326,-0.13955 0.31553,-0.37023 -0.0832,-0.23192 0.20531,-0.67453 -0.0529,0.23067 -0.25137,-0.0514 -0.04,-0.4462 -0.24305,0.37074 -0.54116,0.22951 -0.38058,-0.0816 -1.01048,-0.11772 -1.08816,-0.57759 -0.27886,0.39065 -1.06412,-0.0276 -0.96813,-0.42553 -0.12348,-0.20007 -0.86941,0.35515 -0.3818,-0.22243 -0.38706,0.36905 -0.73397,0.0691 -1.10866,-0.24378 -0.60356,-0.006 -1.07414,-0.5069 -1.67762,-0.29406 -0.42299,0.0527 -1.04241,-0.42322 -1.33309,-0.23201 -0.31683,0.62573 -0.88183,-0.0354 -1.31455,0.0406 -0.39829,-0.17724 -0.96965,-0.40012 -1.32432,-0.30051 0.021,0.32026 0.59106,0.0215 0.39179,0.19069 -0.13844,0.35224 0.65655,0.137 0.41991,0.46246 -0.52741,0.42529 -0.43214,-0.0453 -0.68056,-0.0897 -0.59285,0.13664 -0.17984,-0.65301 -0.43906,-0.68365 0.14196,0.52603 -1.03632,0.72276 -0.89497,0.0619 0.19377,-0.242 -0.31267,0.29565 -0.65385,0.11227 -0.52779,0.10176 -0.98943,-0.53821 -1.43513,-0.11661 -0.63503,-0.0245 -1.13936,-0.4218 -1.79169,-0.34548 -0.39515,-0.14833 -1.12379,-0.14444 -1.34203,0.23775 -0.57569,0.46423 -1.35848,-0.14901 -1.99679,-0.20343 -0.59414,0.0921 -1.16209,-0.0229 -1.73678,-0.16013 -0.93877,-0.0146 -1.82533,0.84907 -2.7303,0.21679 -0.55607,-0.4529 -1.23553,0.11736 -1.84873,-0.15465 -0.55695,0.0135 -1.12178,0.319 -1.66897,-0.002 -0.85642,0.20929 -1.526,-0.59698 -2.39422,-0.51063 -0.21134,-0.006 -0.42269,-0.012 -0.63403,-0.0179 z m -7.84098,2.67594 c -0.62592,0.18553 0.61413,0.42367 0,0 z m 38.45565,0.77193 c -0.33489,-0.0393 0.33571,0.4345 0,0 z m 4.6472,0.059 c -0.28531,0.21154 0.47755,0.62471 0.51735,0.94293 0.30628,0.30877 0.20475,-0.35144 0.51907,-0.0185 0.27196,0.0156 0.0968,0.0734 0.25011,0.23369 0.41835,0.22471 0.22735,-0.12384 0.43,-0.23805 0.47713,0.15382 -0.35162,-0.70558 -0.58312,-0.47808 -0.20132,-0.0547 -0.5655,-0.22709 -0.6238,-0.005 -0.15286,0.0838 -0.44309,-0.28859 -0.50961,-0.43699 z m 1.58664,0.1705 c -0.53373,0.17763 0.71229,0.24564 0,0 z m -7.27305,0.007 c -0.0607,0.0467 0.10761,0.0573 0,0 z m 0.0693,0.0508 c -0.11284,0.1744 0.0744,0.047 0,0 z m 4.76658,0.26887 c 0.10711,0.33162 0.19988,-0.0712 0,0 z m 3.072,0.0645 c -0.51823,-0.14197 0.40959,0.57998 0,0 z m -2.04921,0.16446 c -0.45553,0.21471 0.22872,0.70925 0.009,0.0101 l -0.009,-0.0101 -2e-5,0 z m -5.63844,0.0149 c -0.0921,0.11289 0.10552,0.10564 0,0 z m 6.27182,0.27084 c -0.17614,0.62037 0.67177,0.41554 0.18247,0.20413 0.20079,-0.101 -0.0994,-0.22323 -0.18247,-0.20413 z m -5.78707,0.95138 c -0.30798,-0.0135 -0.38613,0.2173 -0.0474,0.22141 0.23462,0.06 0.014,-0.13312 0.0474,-0.22141 z m 0.17621,0.14198 c -0.20796,0.0966 0.11321,0.11788 0,0 z m -0.53699,0.77224 c 0.046,0.15383 0.0231,0.007 0,0 z m 4.17328,1.09263 c -0.38703,0.0845 -0.86279,-0.0154 -1.08024,0.34557 -0.89977,0.0447 -1.65903,0.64927 -2.56737,0.56032 -0.11135,0.57108 0.55492,0.93742 1.07418,0.78161 0.39864,-0.33902 0.97421,-0.27336 1.37607,-0.26416 0.31122,0.4909 0.0343,-0.32601 0.30749,-0.19964 -0.13469,0.53395 0.71418,0.0802 0.12106,-0.0296 0.19681,-0.24431 0.2712,0.2278 0.54834,-0.0467 -0.31733,-0.12252 0.76638,-0.024 0.62275,-0.036 0.0545,-0.4175 0.22688,-0.4359 0.59612,-0.24763 0.0268,0.0801 -0.11978,0.44503 0.24212,-0.0789 0.53121,0.15696 0.44628,-0.28324 0.73477,-0.14532 0.27213,0.0253 0.88106,0.071 0.30831,-0.2394 -0.34988,-0.0548 -0.87561,-0.0261 -1.32795,-0.17154 -0.30801,-0.0985 -0.60335,-0.16201 -0.95565,-0.22864 z m -51.36913,0.008 c -0.20537,0.0785 0.15324,0.13028 0,0 z m 44.5552,0.0695 c -0.0482,0.29082 0.21719,-0.12237 0,0 z m -42.81742,0.79899 c -1.28324,-0.25615 -2.44009,1.07459 -0.60113,1.43592 0.65805,-0.12232 1.39387,-0.92267 0.60113,-1.43592 z m 27.14617,4.59827 c -0.91675,0.61194 0.27635,0.32838 0,0 z"
       id="polygon10"
       inkscape:connector-curvature="0" />
  </g>
  <g
     inkscape:groupmode="layer"
     id="layer3"
     inkscape:label="dividers">
    <path
       style=""
       id="frames"
       fill="none"
       stroke="#A9A9A9"
       stroke-width="2"
       d="M215,493v55l36,45 M0,425h147l68,68h85l54,54v46" />
    <path
       d="m 891.7648,593 0,-21.60495 67.2352,0"
       id="path5814"
       style="fill:none;stroke:#a9a9a9;stroke-width:2"
       inkscape:connector-curvature="0"
       sodipodi:nodetypes="ccc" />
  </g>
</svg>
